<svg xmlns="http://www.w3.org/2000/svg" xmlns:xlink="http://www.w3.org/1999/xlink" viewBox="0 0 193.5 60"><defs><style>.cls-1{fill:url(#linear-gradient);}.cls-2{fill:url(#linear-gradient-2);}.cls-3{fill:#66676b;}.cls-4{fill:#707174;}</style><linearGradient id="linear-gradient" x1="75.78" y1="949.41" x2="96.15" y2="928.14" gradientTransform="translate(20 -921)" gradientUnits="userSpaceOnUse"><stop offset="0" stop-color="#218645"/><stop offset="0.31" stop-color="#218344"/><stop offset="0.53" stop-color="#227a3f"/><stop offset="0.73" stop-color="#246a37"/><stop offset="0.91" stop-color="#26532c"/><stop offset="1" stop-color="#274625"/></linearGradient><linearGradient id="linear-gradient-2" x1="75.25" y1="966.6" x2="75.25" y2="951" gradientTransform="translate(20 -921)" gradientUnits="userSpaceOnUse"><stop offset="0" stop-color="#f3b31b"/><stop offset="0.15" stop-color="#f3b41f"/><stop offset="0.3" stop-color="#f5b82c"/><stop offset="0.46" stop-color="#f7be41"/><stop offset="0.62" stop-color="#fac65e"/><stop offset="0.78" stop-color="#fed184"/><stop offset="0.82" stop-color="#ffd48e"/><stop offset="1" stop-color="#ffd48e"/></linearGradient></defs><title>Logo</title><g id="Layer_2" data-name="Layer 2"><g id="Layer_1-2" data-name="Layer 1"><path class="cls-1" d="M117,0s-1.7,5.9-9.6,9.3a20.4,20.4,0,0,0-4.9,2.9,16.09,16.09,0,0,0-4.6,6.3,14.22,14.22,0,0,0-1.1,3.3,11.09,11.09,0,0,0,.5,5,27.89,27.89,0,0,1,4.2-2.8c7.3-4.1,13.4-8.4,14.1-15.4,0,7.8-6.4,11.7-14.1,16.4a26,26,0,0,0-3.8,2.7l-1.1,1.1a11.43,11.43,0,0,0,.7,3.2c1.1-3.2,5-5.6,12.2-9.6C121.7,15.4,117,0,117,0Z"/><path class="cls-2" d="M92,42.2c-.9-1.1-.3-5.1.4-6.3A19,19,0,0,0,92,42.2Zm3.8-12.9c-3.3,3.3-5.6,8-5.4,12.5a4.86,4.86,0,0,0,9.7-.5C99.9,37.1,96.1,34.1,95.8,29.3Z"/><path class="cls-3" d="M12.1,42.4c0,3.1.4,3.6,3,3.6v.7H6.7V46c2.6,0,3-.5,3-3.6v-3l-5.2-8c-1.3-2-2.3-2.7-4.5-2.7V28H8.9v.7c-2.6,0-2.6.9-1.7,2.4l4.5,6.8,4.5-6.8c1.1-1.7.9-2.4-1.7-2.4V28h7.3v.7c-2.6,0-3.3.9-4.5,2.7l-5.1,7.8-.1,3.2Z"/><path class="cls-3" d="M26.3,33.9c-3.7,0-5,3.4-5,6.1s1.4,6.1,5,6.1,5-3.4,5-6.1S30,33.9,26.3,33.9Zm0,13.3a7.47,7.47,0,0,1-7.6-7.3,7.46,7.46,0,0,1,7.6-7.2,7.46,7.46,0,0,1,7.6,7.2A7.61,7.61,0,0,1,26.3,47.2Z"/><path class="cls-3" d="M43.7,45.8c2.2,0,3.8-1.2,3.8-3.9V37.5c0-3.1-.4-3.6-2.5-3.6v-.6h6.3v.6c-2,0-2.5.5-2.5,3.6v4.2c0,3.6-2.5,5.5-5.6,5.5a5.19,5.19,0,0,1-5.5-5.5V37.5c0-3.1-.4-3.6-2.5-3.6v-.6h7.1v.6c-2,0-2.5.5-2.5,3.6v4.4C40,44.5,41.5,45.8,43.7,45.8Z"/><path class="cls-3" d="M53.4,33.8v-.6h3.8L65.5,43V37.4c0-3.1-.4-3.6-2.5-3.6v-.6h6.1v.6c-2.1,0-2.5.5-2.5,3.6v9.7H66L57,36.3v6.1c0,3.1.4,3.6,2.5,3.6v.6H53.4V46c2.1,0,2.5-.5,2.5-3.6v-5C55.9,34.3,55.5,33.8,53.4,33.8Z"/><path class="cls-3" d="M77.2,47.2a7.25,7.25,0,0,1,0-14.5,5.52,5.52,0,0,1,4.1,2.1,7.7,7.7,0,0,0,.6-1.5h.6v5.4h-.6c-.6-2.9-2.2-4.7-4.6-4.7-3.5,0-4.6,3.4-4.6,6.1s1.1,6.1,4.6,6.1c1.6,0,3.9-1,3.9-2.6,0-1.2-1.1-1.9-2.7-1.9v-.6h6.9v.6c-2.1,0-2.5.5-2.5,3.6v.9C81,46,79.1,47.2,77.2,47.2Z"/><path class="cls-3" d="M106.8,46c2.6,0,3-.5,3-3.6V32.3c0-3.1-.4-3.6-3-3.6V28h8.4v.7c-2.6,0-3,.5-3,3.6v9.6c0,3.1.4,3.6,3,3.6h1.3c2.8,0,3.2-.7,3.6-2.4l.2-.6h.7l-.2,4.1h-14Z"/><path class="cls-3" d="M122.8,46.7v-.6c2.1,0,2.5-.5,2.5-3.6v-5c0-3.1-.4-3.6-2.5-3.6v-.6h7.1v.6c-2.1,0-2.5.5-2.5,3.6v5c0,3.1.4,3.6,2.5,3.6v.6Z"/><path class="cls-3" d="M144.3,36.6l-4.6,10.6h-.4l-4.6-10.6c-1-2.4-1.4-2.7-3-2.7v-.6h7v.6c-2.2,0-2.5.6-1.7,2.4l3.2,7.3,3.1-7.3c.8-1.8.8-2.4-1.6-2.4v-.6h5.8v.6C145.6,33.8,145.3,34.2,144.3,36.6Z"/><path class="cls-3" d="M149.3,46.7v-.6c2.1,0,2.5-.5,2.5-3.6v-5c0-3.1-.4-3.6-2.5-3.6v-.6h7.1v.6c-2.1,0-2.5.5-2.5,3.6v5c0,3.1.4,3.6,2.5,3.6v.6Z"/><path class="cls-3" d="M159,33.8v-.6h3.8l8.3,9.8V37.4c0-3.1-.4-3.6-2.5-3.6v-.6h6.1v.6c-2.1,0-2.5.5-2.5,3.6v9.7h-.6l-9-10.8v6.1c0,3.1.4,3.6,2.5,3.6v.6H159V46c2.1,0,2.5-.5,2.5-3.6v-5C161.4,34.3,161,33.8,159,33.8Z"/><path class="cls-3" d="M182.8,47.2a7.25,7.25,0,0,1,0-14.5,5.52,5.52,0,0,1,4.1,2.1,7.7,7.7,0,0,0,.6-1.5h.6v5.4h-.6c-.6-2.9-2.2-4.7-4.6-4.7-3.5,0-4.6,3.4-4.6,6.1s1.1,6.1,4.6,6.1c1.6,0,3.9-1,3.9-2.6,0-1.2-1.1-1.9-2.7-1.9v-.6H191v.6c-2.1,0-2.5.5-2.5,3.6v.9C186.5,46,184.6,47.2,182.8,47.2Z"/><polygon class="cls-3" points="46.8 54.4 50.2 54.4 50.2 55 47.5 55 47.5 56.7 49.9 56.7 49.9 57.3 47.4 57.3 47.4 59.2 50.3 59.2 50.3 59.8 46.8 59.8 46.8 54.4"/><path class="cls-3" d="M57.2,55.4a1.23,1.23,0,0,0-1-.5c-.6,0-1.1.3-1.1.9s.3.7,1.1,1,1.6.5,1.6,1.6S56.9,60,55.9,60a1.86,1.86,0,0,1-1.6-.7l.5-.4a1.25,1.25,0,0,0,1.1.6c.5,0,1.2-.3,1.2-.9s-.4-.8-1.4-1.1A1.43,1.43,0,0,1,54.4,56a1.61,1.61,0,0,1,1.8-1.5,2,2,0,0,1,1.5.6Z"/><path class="cls-3" d="M64.8,55.4a1.23,1.23,0,0,0-1-.5c-.6,0-1.1.3-1.1.9s.3.7,1.1,1,1.6.5,1.6,1.6S64.5,60,63.5,60a1.86,1.86,0,0,1-1.6-.7l.5-.4a1.25,1.25,0,0,0,1.1.6c.5,0,1.2-.3,1.2-.9s-.4-.8-1.4-1.1A1.43,1.43,0,0,1,62,56a1.61,1.61,0,0,1,1.8-1.5,2,2,0,0,1,1.5.6Z"/><polygon class="cls-3" points="69.8 54.4 73.2 54.4 73.2 55 70.5 55 70.5 56.7 73 56.7 73 57.3 70.5 57.3 70.5 59.2 73.4 59.2 73.4 59.8 69.9 59.8 69.9 54.4 69.8 54.4"/><polygon class="cls-3" points="77.7 54.4 78.5 54.4 81.6 58.8 81.6 54.4 82.2 54.4 82.2 59.7 81.4 59.7 78.3 55.3 78.3 59.7 77.7 59.7 77.7 54.4"/><polygon class="cls-3" points="90.5 55 88.8 55 88.8 59.8 88.2 59.8 88.2 55 86.4 55 86.4 54.4 90.5 54.4 90.5 55"/><rect class="cls-3" x="94.6" y="54.4" width="0.6" height="5.3"/><path class="cls-3" d="M102,55.2l-1.1,2.6h2.2Zm-.3-.8h.6l2.3,5.3h-.7l-.5-1.3h-2.7l-.6,1.3h-.7Z"/><polygon class="cls-3" points="108.7 54.4 109.3 54.4 109.3 59.2 111.7 59.2 111.7 59.8 108.6 59.8 108.6 54.4 108.7 54.4"/><path class="cls-3" d="M126,57.1a2.14,2.14,0,0,0-2.1-2.2,2.07,2.07,0,0,0-2.1,2.2,2.1,2.1,0,1,0,4.2,0Zm-4.9,0a2.8,2.8,0,1,1,2.8,2.8A2.73,2.73,0,0,1,121.1,57.1Z"/><rect class="cls-3" x="131.1" y="54.4" width="0.6" height="5.3"/><polygon class="cls-3" points="136.5 54.4 137.1 54.4 137.1 59.2 139.5 59.2 139.5 59.8 136.4 59.8 136.4 54.4 136.5 54.4"/><path class="cls-3" d="M146.2,55.4a1.23,1.23,0,0,0-1-.5c-.6,0-1.1.3-1.1.9s.3.7,1.1,1,1.6.5,1.6,1.6-.9,1.6-1.9,1.6a1.86,1.86,0,0,1-1.6-.7l.5-.4a1.25,1.25,0,0,0,1.1.6c.5,0,1.2-.3,1.2-.9s-.4-.8-1.4-1.1a1.43,1.43,0,0,1-1.3-1.5,1.61,1.61,0,0,1,1.8-1.5,2,2,0,0,1,1.5.6Z"/><path class="cls-4" d="M191.8,34.5h.7l.1-.1v-.3l-.1-.1h-.6l-.1.5Zm0,1h-.2V33.7h.7c.2,0,.3,0,.4.1s.1.2.1.4v.2a.1.1,0,0,1-.1.1l-.1.1c-.1,0-.1,0-.2.1l.5.8h-.3l-.5-.8h-.3v.8Zm-1-.9a.75.75,0,0,0,.1.5,1.38,1.38,0,0,0,.3.4c.1.1.3.2.4.3a.9.9,0,0,0,.5.1.75.75,0,0,0,.5-.1,1.38,1.38,0,0,0,.4-.3c.1-.1.2-.3.3-.4a.9.9,0,0,0,.1-.5.75.75,0,0,0-.1-.5,1.38,1.38,0,0,0-.3-.4c-.1-.1-.3-.2-.4-.3a.9.9,0,0,0-.5-.1.75.75,0,0,0-.5.1,1.38,1.38,0,0,0-.4.3c-.1.1-.2.3-.3.4A1.09,1.09,0,0,0,190.8,34.6Zm-.3,0a1.27,1.27,0,0,1,.1-.6,2.19,2.19,0,0,1,.3-.5.85.85,0,0,1,.5-.3,1.85,1.85,0,0,1,1.2,0,2.19,2.19,0,0,1,.5.3.85.85,0,0,1,.3.5,1.85,1.85,0,0,1,0,1.2,2.19,2.19,0,0,1-.3.5.85.85,0,0,1-.5.3,1.85,1.85,0,0,1-1.2,0,2.19,2.19,0,0,1-.5-.3.85.85,0,0,1-.3-.5A3.54,3.54,0,0,1,190.5,34.6Z"/></g></g></svg>