<svg xmlns="http://www.w3.org/2000/svg" xmlns:xlink="http://www.w3.org/1999/xlink" viewBox="0 0 27.5 46.41"><defs><style>.cls-1{fill:url(#linear-gradient);}.cls-2{fill:url(#linear-gradient-2);}</style><linearGradient id="linear-gradient" x1="-14.61" y1="949.41" x2="5.77" y2="928.14" gradientTransform="translate(20 -921)" gradientUnits="userSpaceOnUse"><stop offset="0" stop-color="#218645"/><stop offset="0.31" stop-color="#218344"/><stop offset="0.53" stop-color="#227a3f"/><stop offset="0.73" stop-color="#246a37"/><stop offset="0.91" stop-color="#26532c"/><stop offset="1" stop-color="#274625"/></linearGradient><linearGradient id="linear-gradient-2" x1="-15.14" y1="966.6" x2="-15.14" y2="951" gradientTransform="translate(20 -921)" gradientUnits="userSpaceOnUse"><stop offset="0" stop-color="#f3b31b"/><stop offset="0.15" stop-color="#f3b41f"/><stop offset="0.3" stop-color="#f5b82c"/><stop offset="0.46" stop-color="#f7be41"/><stop offset="0.62" stop-color="#fac65e"/><stop offset="0.78" stop-color="#fed184"/><stop offset="0.82" stop-color="#ffd48e"/><stop offset="1" stop-color="#ffd48e"/></linearGradient></defs><title>YL Icon</title><g id="Layer_2" data-name="Layer 2"><g id="Layer_1-2" data-name="Layer 1"><path class="cls-1" d="M26.61,0S24.91,5.9,17,9.3a20.4,20.4,0,0,0-4.9,2.9,16.09,16.09,0,0,0-4.6,6.3,14.22,14.22,0,0,0-1.1,3.3,11.09,11.09,0,0,0,.5,5,27.89,27.89,0,0,1,4.2-2.8c7.3-4.1,13.4-8.4,14.1-15.4,0,7.8-6.4,11.7-14.1,16.4a26,26,0,0,0-3.8,2.7l-1.1,1.1a11.43,11.43,0,0,0,.7,3.2c1.1-3.2,5-5.6,12.2-9.6C31.31,15.4,26.61,0,26.61,0Z"/><path class="cls-2" d="M1.61,42.2c-.9-1.1-.3-5.1.4-6.3A19,19,0,0,0,1.61,42.2Zm3.8-12.9c-3.3,3.3-5.6,8-5.4,12.5a4.77,4.77,0,0,0,5.1,4.6,4.77,4.77,0,0,0,4.6-5.1C9.51,37.1,5.71,34.1,5.41,29.3Z"/></g></g></svg>