<?xml version="1.0" encoding="UTF-8"?>
<!-- Generator: Adobe Illustrator 21.0.2, SVG Export Plug-In . SVG Version: 6.00 Build 0)  -->
<svg version="1.1" id="Layer_1" xmlns="http://www.w3.org/2000/svg" xmlns:xlink="http://www.w3.org/1999/xlink" x="0px" y="0px" viewBox="0 0 194 60" style="enable-background:new 0 0 194 60;" xml:space="preserve">
<style type="text/css">
	.st0{fill:url(#SVGID_1_);}
	.st1{fill:url(#SVGID_2_);}
	.st2{fill:#66676B;}
	.st3{fill:#707174;}
</style>
<g>
	
		<linearGradient id="SVGID_1_" gradientUnits="userSpaceOnUse" x1="75.7788" y1="1050.5916" x2="96.1505" y2="1071.86" gradientTransform="matrix(1 0 0 -1 20 1079)">
		<stop offset="0" style="stop-color:#218645"/>
		<stop offset="0.3055" style="stop-color:#218344"/>
		<stop offset="0.5311" style="stop-color:#227A3F"/>
		<stop offset="0.731" style="stop-color:#246A37"/>
		<stop offset="0.9149" style="stop-color:#26532C"/>
		<stop offset="1" style="stop-color:#274625"/>
	</linearGradient>
	<path class="st0" d="M117,0c0,0-1.7,5.9-9.6,9.3c-1.7,0.7-3.4,1.7-4.9,2.9c-2,1.7-3.6,3.8-4.6,6.3c-0.5,1.1-0.9,2.2-1.1,3.3   c-0.2,1.2-0.1,3.5,0.5,5c1.3-1.1,2.8-2,4.2-2.8c7.3-4.1,13.4-8.4,14.1-15.4c0,7.8-6.4,11.7-14.1,16.4c-1.3,0.8-2.7,1.7-3.8,2.7   c-0.4,0.4-0.7,0.7-1.1,1.1c0.1,1.1,0.3,2.2,0.7,3.2c1.1-3.2,5-5.6,12.2-9.6C121.7,15.4,117,0,117,0z"/>
	
		<linearGradient id="SVGID_2_" gradientUnits="userSpaceOnUse" x1="75.2916" y1="1033.3965" x2="75.2916" y2="1049.0034" gradientTransform="matrix(1 0 0 -1 20 1079)">
		<stop offset="0" style="stop-color:#F3B31B"/>
		<stop offset="0.1479" style="stop-color:#F3B41F"/>
		<stop offset="0.3033" style="stop-color:#F5B82C"/>
		<stop offset="0.4622" style="stop-color:#F7BE41"/>
		<stop offset="0.6234" style="stop-color:#FAC65E"/>
		<stop offset="0.7849" style="stop-color:#FED184"/>
		<stop offset="0.824" style="stop-color:#FFD48E"/>
		<stop offset="1" style="stop-color:#FFD48E"/>
	</linearGradient>
	<path class="st1" d="M92,42.2c-0.9-1.1-0.3-5.1,0.4-6.3C91.7,39.4,91.9,41.1,92,42.2z M95.8,29.3c-3.3,3.3-5.6,8-5.4,12.5   c0.1,2.7,2.4,4.8,5.1,4.6c2.7-0.1,4.8-2.4,4.6-5.1C99.9,37.1,96.1,34.1,95.8,29.3z"/>
	<path class="st2" d="M12.1,42.4c0,3.1,0.4,3.6,3,3.6v0.7H6.7V46c2.6,0,3-0.5,3-3.6v-3l-5.2-8c-1.3-2-2.3-2.7-4.5-2.7v-0.7h8.9v0.7   c-2.6,0-2.6,0.9-1.7,2.4l4.5,6.8l4.5-6.8c1.1-1.7,0.9-2.4-1.7-2.4v-0.7h7.3v0.7c-2.6,0-3.3,0.9-4.5,2.7l-5.1,7.8L12.1,42.4   L12.1,42.4z"/>
	<path class="st2" d="M26.3,33.9c-3.7,0-5,3.4-5,6.1c0,2.7,1.4,6.1,5,6.1c3.6,0,5-3.4,5-6.1C31.3,37.2,30,33.9,26.3,33.9z    M26.3,47.2c-4.2,0-7.6-3.3-7.6-7.3c0-3.9,3.4-7.2,7.6-7.2s7.6,3.3,7.6,7.2C33.8,43.9,30.4,47.2,26.3,47.2z"/>
	<path class="st2" d="M43.7,45.8c2.2,0,3.8-1.2,3.8-3.9v-4.4c0-3.1-0.4-3.6-2.5-3.6v-0.6h6.3v0.6c-2,0-2.5,0.5-2.5,3.6v4.2   c0,3.6-2.5,5.5-5.6,5.5c-3,0-5.5-1.9-5.5-5.5v-4.2c0-3.1-0.4-3.6-2.5-3.6v-0.6h7.1v0.6c-2,0-2.5,0.5-2.5,3.6v4.4   C40,44.5,41.5,45.8,43.7,45.8z"/>
	<path class="st2" d="M53.4,33.8v-0.6h3.8l8.3,9.8v-5.6c0-3.1-0.4-3.6-2.5-3.6v-0.6h6.1v0.6c-2.1,0-2.5,0.5-2.5,3.6v9.7H66l-9-10.8   v6.1c0,3.1,0.4,3.6,2.5,3.6v0.6h-6.1V46c2.1,0,2.5-0.5,2.5-3.6v-5C55.9,34.3,55.5,33.8,53.4,33.8z"/>
	<path class="st2" d="M77.2,47.2c-3.9,0-7-3.3-7-7.3c0-3.9,3.1-7.2,7-7.2c1.5,0,3.2,0.9,4.1,2.1c0.2-0.2,0.4-1,0.6-1.5h0.6v5.4h-0.6   c-0.6-2.9-2.2-4.7-4.6-4.7c-3.5,0-4.6,3.4-4.6,6.1c0,2.6,1.1,6.1,4.6,6.1c1.6,0,3.9-1,3.9-2.6c0-1.2-1.1-1.9-2.7-1.9v-0.6h6.9v0.6   c-2.1,0-2.5,0.5-2.5,3.6c0,0,0,0.6,0,0.9C81,46,79.1,47.2,77.2,47.2z"/>
	<path class="st2" d="M106.8,46c2.6,0,3-0.5,3-3.6V32.3c0-3.1-0.4-3.6-3-3.6v-0.7h8.4v0.7c-2.6,0-3,0.5-3,3.6v9.6   c0,3.1,0.4,3.6,3,3.6h1.3c2.8,0,3.2-0.7,3.6-2.4l0.2-0.6h0.7l-0.2,4.1h-14V46z"/>
	<path class="st2" d="M122.8,46.7v-0.6c2.1,0,2.5-0.5,2.5-3.6v-5c0-3.1-0.4-3.6-2.5-3.6v-0.6h7.1v0.6c-2.1,0-2.5,0.5-2.5,3.6v5   c0,3.1,0.4,3.6,2.5,3.6v0.6H122.8z"/>
	<path class="st2" d="M144.3,36.6l-4.6,10.6h-0.4l-4.6-10.6c-1-2.4-1.4-2.7-3-2.7v-0.6h7v0.6c-2.2,0-2.5,0.6-1.7,2.4l3.2,7.3   l3.1-7.3c0.8-1.8,0.8-2.4-1.6-2.4v-0.6h5.8v0.6C145.6,33.8,145.3,34.2,144.3,36.6z"/>
	<path class="st2" d="M149.3,46.7v-0.6c2.1,0,2.5-0.5,2.5-3.6v-5c0-3.1-0.4-3.6-2.5-3.6v-0.6h7.1v0.6c-2.1,0-2.5,0.5-2.5,3.6v5   c0,3.1,0.4,3.6,2.5,3.6v0.6H149.3z"/>
	<path class="st2" d="M159,33.8v-0.6h3.8l8.3,9.8v-5.6c0-3.1-0.4-3.6-2.5-3.6v-0.6h6.1v0.6c-2.1,0-2.5,0.5-2.5,3.6v9.7h-0.6l-9-10.8   v6.1c0,3.1,0.4,3.6,2.5,3.6v0.6H159V46c2.1,0,2.5-0.5,2.5-3.6v-5C161.4,34.3,161,33.8,159,33.8z"/>
	<path class="st2" d="M182.8,47.2c-3.9,0-7-3.3-7-7.3c0-3.9,3.1-7.2,7-7.2c1.5,0,3.2,0.9,4.1,2.1c0.2-0.2,0.4-1,0.6-1.5h0.6v5.4   h-0.6c-0.6-2.9-2.2-4.7-4.6-4.7c-3.5,0-4.6,3.4-4.6,6.1c0,2.6,1.1,6.1,4.6,6.1c1.6,0,3.9-1,3.9-2.6c0-1.2-1.1-1.9-2.7-1.9v-0.6h6.9   v0.6c-2.1,0-2.5,0.5-2.5,3.6c0,0,0,0.6,0,0.9C186.5,46,184.6,47.2,182.8,47.2z"/>
	<polygon class="st2" points="46.8,54.4 50.2,54.4 50.2,55 47.5,55 47.5,56.7 49.9,56.7 49.9,57.3 47.4,57.3 47.4,59.2 50.3,59.2    50.3,59.8 46.8,59.8  "/>
	<path class="st2" d="M57.2,55.4c-0.2-0.3-0.6-0.5-1-0.5c-0.6,0-1.1,0.3-1.1,0.9c0,0.5,0.3,0.7,1.1,1c0.8,0.3,1.6,0.5,1.6,1.6   c0,1.1-0.9,1.6-1.9,1.6c-0.6,0-1.3-0.2-1.6-0.7l0.5-0.4c0.2,0.4,0.7,0.6,1.1,0.6c0.5,0,1.2-0.3,1.2-0.9c0-0.7-0.4-0.8-1.4-1.1   c-0.8-0.2-1.3-0.6-1.3-1.5c0-1,0.9-1.5,1.8-1.5c0.6,0,1.1,0.2,1.5,0.6L57.2,55.4z"/>
	<path class="st2" d="M64.8,55.4c-0.2-0.3-0.6-0.5-1-0.5c-0.6,0-1.1,0.3-1.1,0.9c0,0.5,0.3,0.7,1.1,1c0.8,0.3,1.6,0.5,1.6,1.6   c0,1.1-0.9,1.6-1.9,1.6c-0.6,0-1.3-0.2-1.6-0.7l0.5-0.4c0.2,0.4,0.7,0.6,1.1,0.6c0.5,0,1.2-0.3,1.2-0.9c0-0.7-0.4-0.8-1.4-1.1   C62.5,57.3,62,56.9,62,56c0-1,0.9-1.5,1.8-1.5c0.6,0,1.1,0.2,1.5,0.6L64.8,55.4z"/>
	<polygon class="st2" points="69.8,54.4 73.2,54.4 73.2,55 70.5,55 70.5,56.7 73,56.7 73,57.3 70.5,57.3 70.5,59.2 73.4,59.2    73.4,59.8 69.9,59.8 69.9,54.4  "/>
	<polygon class="st2" points="77.7,54.4 78.5,54.4 81.6,58.8 81.6,54.4 82.2,54.4 82.2,59.7 81.4,59.7 78.3,55.3 78.3,59.7    77.7,59.7  "/>
	<polygon class="st2" points="90.5,55 88.8,55 88.8,59.8 88.2,59.8 88.2,55 86.4,55 86.4,54.4 90.5,54.4 90.5,55  "/>
	<rect x="94.6" y="54.4" class="st2" width="0.6" height="5.3"/>
	<path class="st2" d="M102,55.2l-1.1,2.6h2.2L102,55.2z M101.7,54.4h0.6l2.3,5.3h-0.7l-0.5-1.3h-2.7l-0.6,1.3h-0.7L101.7,54.4z"/>
	<polygon class="st2" points="108.7,54.4 109.3,54.4 109.3,59.2 111.7,59.2 111.7,59.8 108.6,59.8 108.6,54.4  "/>
	<path class="st2" d="M126,57.1c0-1.2-0.9-2.2-2.1-2.2c-1.3,0-2.1,1-2.1,2.2s0.9,2.2,2.1,2.2C125.1,59.3,126,58.3,126,57.1z    M121.1,57.1c0-1.6,1.2-2.8,2.8-2.8c1.6,0,2.8,1.2,2.8,2.8c0,1.6-1.2,2.8-2.8,2.8C122.3,59.9,121.1,58.7,121.1,57.1z"/>
	<rect x="131.1" y="54.4" class="st2" width="0.6" height="5.3"/>
	<polygon class="st2" points="136.5,54.4 137.1,54.4 137.1,59.2 139.5,59.2 139.5,59.8 136.4,59.8 136.4,54.4  "/>
	<path class="st2" d="M146.2,55.4c-0.2-0.3-0.6-0.5-1-0.5c-0.6,0-1.1,0.3-1.1,0.9c0,0.5,0.3,0.7,1.1,1c0.8,0.3,1.6,0.5,1.6,1.6   c0,1.1-0.9,1.6-1.9,1.6c-0.6,0-1.3-0.2-1.6-0.7l0.5-0.4c0.2,0.4,0.7,0.6,1.1,0.6c0.5,0,1.2-0.3,1.2-0.9c0-0.7-0.4-0.8-1.4-1.1   c-0.8-0.2-1.3-0.6-1.3-1.5c0-1,0.9-1.5,1.8-1.5c0.6,0,1.1,0.2,1.5,0.6L146.2,55.4z"/>
	<path class="st3" d="M191.8,34.5h0.3c0.1,0,0.1,0,0.2,0c0.1,0,0.1,0,0.2,0l0.1-0.1c0,0,0-0.1,0-0.2c0-0.1,0-0.1,0-0.1l-0.1-0.1   h-0.1h-0.1h-0.4L191.8,34.5L191.8,34.5z M191.8,35.5h-0.2v-1.8h0.7c0.2,0,0.3,0,0.4,0.1c0.1,0.1,0.1,0.2,0.1,0.4c0,0.1,0,0.2,0,0.2   c0,0.1-0.1,0.1-0.1,0.1l-0.1,0.1c-0.1,0-0.1,0-0.2,0.1l0.5,0.8h-0.3l-0.5-0.8h-0.3L191.8,35.5L191.8,35.5z M190.8,34.6   c0,0.2,0,0.4,0.1,0.5c0.1,0.2,0.2,0.3,0.3,0.4c0.1,0.1,0.3,0.2,0.4,0.3c0.2,0.1,0.3,0.1,0.5,0.1s0.4,0,0.5-0.1   c0.2-0.1,0.3-0.2,0.4-0.3c0.1-0.1,0.2-0.3,0.3-0.4c0.1-0.2,0.1-0.3,0.1-0.5s0-0.4-0.1-0.5c-0.1-0.2-0.2-0.3-0.3-0.4   c-0.1-0.1-0.3-0.2-0.4-0.3c-0.2-0.1-0.3-0.1-0.5-0.1s-0.4,0-0.5,0.1c-0.2,0.1-0.3,0.2-0.4,0.3c-0.1,0.1-0.2,0.3-0.3,0.4   C190.8,34.3,190.8,34.5,190.8,34.6z M190.5,34.6c0-0.2,0-0.4,0.1-0.6c0.1-0.2,0.2-0.4,0.3-0.5c0.1-0.1,0.3-0.3,0.5-0.3   c0.2-0.1,0.4-0.1,0.6-0.1c0.2,0,0.4,0,0.6,0.1c0.2,0.1,0.4,0.2,0.5,0.3c0.1,0.1,0.3,0.3,0.3,0.5c0.1,0.2,0.1,0.4,0.1,0.6   s0,0.4-0.1,0.6s-0.2,0.4-0.3,0.5c-0.1,0.1-0.3,0.3-0.5,0.3c-0.2,0.1-0.4,0.1-0.6,0.1c-0.2,0-0.4,0-0.6-0.1   c-0.2-0.1-0.4-0.2-0.5-0.3c-0.1-0.1-0.3-0.3-0.3-0.5C190.6,35.1,190.5,34.9,190.5,34.6z"/>
</g>
</svg>